<svg preserveAspectRatio="none" overflow="visible" style="display: block;" width="175" height="151" viewBox="0 0 175 151" fill="none" xmlns="http://www.w3.org/2000/svg">
<g id="Hexagon">
<foreignObject x="-18.4424" y="-20" width="211.885" height="191"><div xmlns="http://www.w3.org/1999/xhtml" style="backdrop-filter:blur(10px);clip-path:url(#bgblur_0_0_137_clip_path);height:100%;width:100%"></div></foreignObject><g id="Hexagon_2" filter="url(#filter0_i_0_137)" data-figma-bg-blur-radius="20">
<path d="M172.095 70.4863C173.892 73.5872 173.892 77.4128 172.095 80.5138L134.139 146.014C132.351 149.1 129.054 151 125.487 151H49.5129C45.9459 151 42.649 149.1 40.8606 146.014L2.90532 80.5138C1.10839 77.4128 1.10839 73.5872 2.90532 70.4863L40.8606 4.98625C42.649 1.89999 45.9459 0 49.5129 0H125.487C129.054 0 132.351 1.89999 134.139 4.98625L172.095 70.4863Z" fill="white" fill-opacity="0.01"/>
<path d="M49.5127 0.5H125.487C128.876 0.500078 132.008 2.30542 133.707 5.2373L171.662 70.7373C173.369 73.6831 173.369 77.3169 171.662 80.2627L133.707 145.763C132.008 148.695 128.876 150.5 125.487 150.5H49.5127C46.1241 150.5 42.9919 148.695 41.293 145.763L3.33789 80.2627C1.63103 77.3169 1.63103 73.6831 3.33789 70.7373L41.293 5.2373C42.9919 2.30542 46.1241 0.500079 49.5127 0.5Z" stroke="url(#paint0_linear_0_137)"/>
</g>
</g>
<defs>
<filter id="filter0_i_0_137" x="-18.4424" y="-20" width="211.885" height="191" filterUnits="userSpaceOnUse" color-interpolation-filters="sRGB">
<feFlood flood-opacity="0" result="BackgroundImageFix"/>
<feBlend mode="normal" in="SourceGraphic" in2="BackgroundImageFix" result="shape"/>
<feColorMatrix in="SourceAlpha" type="matrix" values="0 0 0 0 0 0 0 0 0 0 0 0 0 0 0 0 0 0 127 0" result="hardAlpha"/>
<feOffset dy="20"/>
<feGaussianBlur stdDeviation="25"/>
<feComposite in2="hardAlpha" operator="arithmetic" k2="-1" k3="1"/>
<feColorMatrix type="matrix" values="0 0 0 0 1 0 0 0 0 1 0 0 0 0 1 0 0 0 0.1 0"/>
<feBlend mode="normal" in2="shape" result="effect1_innerShadow_0_137"/>
</filter>
<clipPath id="bgblur_0_0_137_clip_path" transform="translate(18.4424 20)"><path d="M172.095 70.4863C173.892 73.5872 173.892 77.4128 172.095 80.5138L134.139 146.014C132.351 149.1 129.054 151 125.487 151H49.5129C45.9459 151 42.649 149.1 40.8606 146.014L2.90532 80.5138C1.10839 77.4128 1.10839 73.5872 2.90532 70.4863L40.8606 4.98625C42.649 1.89999 45.9459 0 49.5129 0H125.487C129.054 0 132.351 1.89999 134.139 4.98625L172.095 70.4863Z"/>
</clipPath><linearGradient id="paint0_linear_0_137" x1="175" y1="151" x2="5.9792e-07" y2="-6.92953e-07" gradientUnits="userSpaceOnUse">
<stop stop-color="white" stop-opacity="0"/>
<stop offset="1" stop-color="white" stop-opacity="0.2"/>
</linearGradient>
</defs>
</svg>
