<svg preserveAspectRatio="none" overflow="visible" style="display: block;" width="171.885" height="151" viewBox="0 0 171.885 151" fill="none" xmlns="http://www.w3.org/2000/svg">
<foreignObject x="-20" y="-20" width="211.885" height="201"><div xmlns="http://www.w3.org/1999/xhtml" style="backdrop-filter:blur(10px);clip-path:url(#bgblur_0_0_132_clip_path);height:100%;width:100%"></div></foreignObject><g id="Hexagon" filter="url(#filter0_i_0_132)" data-figma-bg-blur-radius="20">
<path d="M170.537 70.4863C172.334 73.5872 172.334 77.4128 170.537 80.5138L132.582 146.014C130.793 149.1 127.496 151 123.929 151H47.9553C44.3883 151 41.0914 149.1 39.303 146.014L1.3477 80.5138C-0.449233 77.4128 -0.449233 73.5872 1.3477 70.4863L39.303 4.98625C41.0914 1.89999 44.3883 0 47.9553 0H123.929C127.496 0 130.793 1.89999 132.582 4.98625L170.537 70.4863Z" fill="white" fill-opacity="0.04"/>
<path d="M47.9551 0.5H123.93C127.318 0.500078 130.45 2.30542 132.149 5.2373L170.104 70.7373C171.811 73.6831 171.811 77.3169 170.104 80.2627L132.149 145.763C130.45 148.695 127.318 150.5 123.93 150.5H47.9551C44.5665 150.5 41.4343 148.695 39.7353 145.763L1.78027 80.2627C0.0734125 77.3169 0.0734118 73.6831 1.78027 70.7373L39.7353 5.2373C41.4343 2.30542 44.5665 0.500079 47.9551 0.5Z" stroke="url(#paint0_linear_0_132)"/>
</g>
<defs>
<filter id="filter0_i_0_132" x="-20" y="-20" width="211.885" height="201" filterUnits="userSpaceOnUse" color-interpolation-filters="sRGB">
<feFlood flood-opacity="0" result="BackgroundImageFix"/>
<feBlend mode="normal" in="SourceGraphic" in2="BackgroundImageFix" result="shape"/>
<feColorMatrix in="SourceAlpha" type="matrix" values="0 0 0 0 0 0 0 0 0 0 0 0 0 0 0 0 0 0 127 0" result="hardAlpha"/>
<feOffset dy="30"/>
<feGaussianBlur stdDeviation="15"/>
<feComposite in2="hardAlpha" operator="arithmetic" k2="-1" k3="1"/>
<feColorMatrix type="matrix" values="0 0 0 0 1 0 0 0 0 1 0 0 0 0 1 0 0 0 0.05 0"/>
<feBlend mode="normal" in2="shape" result="effect1_innerShadow_0_132"/>
</filter>
<clipPath id="bgblur_0_0_132_clip_path" transform="translate(20 20)"><path d="M170.537 70.4863C172.334 73.5872 172.334 77.4128 170.537 80.5138L132.582 146.014C130.793 149.1 127.496 151 123.929 151H47.9553C44.3883 151 41.0914 149.1 39.303 146.014L1.3477 80.5138C-0.449233 77.4128 -0.449233 73.5872 1.3477 70.4863L39.303 4.98625C41.0914 1.89999 44.3883 0 47.9553 0H123.929C127.496 0 130.793 1.89999 132.582 4.98625L170.537 70.4863Z"/>
</clipPath><linearGradient id="paint0_linear_0_132" x1="-1.55762" y1="0" x2="173.442" y2="151" gradientUnits="userSpaceOnUse">
<stop stop-color="#E1F6FF" stop-opacity="0.3"/>
<stop offset="1" stop-color="white" stop-opacity="0.07"/>
</linearGradient>
</defs>
</svg>
